<svg width="157" height="50" viewBox="0 0 157 50" fill="none" xmlns="http://www.w3.org/2000/svg">
<rect y="1" width="48" height="48" rx="7.20004" fill="white"/>
<rect y="1" width="48" height="48" rx="7.20004" fill="#C62946"/>
<rect y="1" width="48" height="48" rx="7.20004" fill="#1963AA"/>
<rect y="1" width="26.4" height="48" rx="7.20004" fill="#C62946"/>
<path d="M13.1602 23.1953V29.1975C13.1602 32.5928 13.1602 34.2904 14.2146 35.3452C15.269 36.4001 16.966 36.4001 20.3602 36.4001H27.5602C30.9542 36.4001 32.6513 36.4001 33.7057 35.3452C34.7602 34.2904 34.7602 32.5928 34.7602 29.1975V23.1953" stroke="white" stroke-width="2.40001" stroke-linecap="round"/>
<path d="M27.5599 30.9918C26.7389 31.7205 25.432 32.1918 23.9599 32.1918C22.4877 32.1918 21.1808 31.7205 20.3599 30.9918" stroke="white" stroke-width="2.40001" stroke-linecap="round"/>
<path d="M21.7246 20.7022C21.3862 21.9243 20.1555 24.0323 17.8173 24.3378C15.7528 24.6076 14.1869 23.7064 13.787 23.3296C13.346 23.0241 12.341 22.0465 12.0949 21.4354C11.8487 20.8244 12.1359 19.5005 12.341 18.9607L13.1609 16.5867C13.3611 15.9904 13.8296 14.58 14.31 14.103C14.7904 13.6259 15.763 13.6052 16.1633 13.6052H24.5699C26.7337 13.6357 31.4651 13.5859 32.4004 13.6052C33.3356 13.6245 33.8977 14.4085 34.0618 14.7445C35.4572 18.1247 36 20.0606 36 20.8855C35.8178 21.7655 35.064 23.4248 32.4004 24.1546C29.632 24.913 28.0625 23.4377 27.5701 22.8713M20.5863 22.8713C20.976 23.35 22.1984 24.3135 23.9705 24.3378C25.7426 24.3623 27.2728 23.126 27.8162 22.5047C27.9701 22.3214 28.3024 21.7776 28.647 20.7022" stroke="white" stroke-width="2.40001" stroke-linecap="round" stroke-linejoin="round"/>
<path d="M94.9307 40.0869C94.9307 39.7992 94.8883 39.541 94.8037 39.3125C94.7191 39.0755 94.5625 38.8555 94.334 38.6523C94.1055 38.4492 93.7754 38.2461 93.3438 38.043C92.9206 37.8314 92.362 37.6113 91.668 37.3828C90.8555 37.112 90.0726 36.8073 89.3193 36.4688C88.5661 36.1217 87.8932 35.7197 87.3008 35.2627C86.7083 34.7972 86.2386 34.2555 85.8916 33.6377C85.5446 33.0114 85.3711 32.2835 85.3711 31.4541C85.3711 30.6585 85.5488 29.9434 85.9043 29.3086C86.2598 28.6654 86.7549 28.1195 87.3896 27.6709C88.0329 27.2139 88.7861 26.8669 89.6494 26.6299C90.5127 26.3844 91.4564 26.2617 92.4805 26.2617C93.8346 26.2617 95.028 26.4987 96.0605 26.9727C97.1016 27.4382 97.9141 28.1025 98.498 28.9658C99.0905 29.8206 99.3867 30.832 99.3867 32H94.9561C94.9561 31.5345 94.8587 31.124 94.6641 30.7686C94.4779 30.4131 94.1943 30.1338 93.8135 29.9307C93.4326 29.7275 92.9544 29.626 92.3789 29.626C91.8203 29.626 91.3506 29.7106 90.9697 29.8799C90.5889 30.0492 90.3011 30.2777 90.1064 30.5654C89.9118 30.8447 89.8145 31.1536 89.8145 31.4922C89.8145 31.7715 89.8906 32.0254 90.043 32.2539C90.2038 32.474 90.4281 32.6813 90.7158 32.876C91.012 33.0706 91.3675 33.2568 91.7822 33.4346C92.2054 33.6123 92.6794 33.7858 93.2041 33.9551C94.1859 34.2682 95.0576 34.6195 95.8193 35.0088C96.5895 35.3896 97.237 35.8255 97.7617 36.3164C98.2949 36.7988 98.6969 37.349 98.9678 37.9668C99.2471 38.5846 99.3867 39.2829 99.3867 40.0615C99.3867 40.891 99.2259 41.6273 98.9043 42.2705C98.5827 42.9137 98.1214 43.4596 97.5205 43.9082C96.9196 44.3483 96.2002 44.6826 95.3623 44.9111C94.5244 45.1396 93.5892 45.2539 92.5566 45.2539C91.6087 45.2539 90.6735 45.1354 89.751 44.8984C88.8369 44.653 88.0075 44.2806 87.2627 43.7812C86.5179 43.2734 85.9212 42.626 85.4727 41.8389C85.0326 41.0433 84.8125 40.0996 84.8125 39.0078H89.2812C89.2812 39.5495 89.3532 40.0065 89.4971 40.3789C89.641 40.7513 89.8525 41.0518 90.1318 41.2803C90.4111 41.5003 90.7539 41.6611 91.1602 41.7627C91.5664 41.8558 92.0319 41.9023 92.5566 41.9023C93.1237 41.9023 93.5807 41.8219 93.9277 41.6611C94.2747 41.4919 94.5286 41.2718 94.6895 41.001C94.8503 40.7217 94.9307 40.417 94.9307 40.0869ZM109.718 31.2637V34.2344H101.44V31.2637H109.718ZM103.18 27.8486H107.458V40.5186C107.458 40.8825 107.5 41.166 107.585 41.3691C107.67 41.5638 107.813 41.7035 108.017 41.7881C108.228 41.8643 108.507 41.9023 108.854 41.9023C109.1 41.9023 109.303 41.8981 109.464 41.8896C109.625 41.8727 109.777 41.8516 109.921 41.8262V44.8857C109.557 45.0042 109.176 45.0931 108.778 45.1523C108.381 45.2201 107.957 45.2539 107.509 45.2539C106.595 45.2539 105.812 45.11 105.16 44.8223C104.517 44.5345 104.026 44.0817 103.688 43.4639C103.349 42.846 103.18 42.042 103.18 41.0518V27.8486ZM111.505 38.2715V38.0049C111.505 36.9977 111.649 36.071 111.937 35.2246C112.224 34.3698 112.647 33.6292 113.206 33.0029C113.765 32.3766 114.454 31.89 115.275 31.543C116.096 31.1875 117.044 31.0098 118.119 31.0098C119.202 31.0098 120.155 31.1875 120.976 31.543C121.805 31.89 122.499 32.3766 123.058 33.0029C123.616 33.6292 124.039 34.3698 124.327 35.2246C124.615 36.071 124.759 36.9977 124.759 38.0049V38.2715C124.759 39.2702 124.615 40.1969 124.327 41.0518C124.039 41.8981 123.616 42.6387 123.058 43.2734C122.499 43.8997 121.809 44.3864 120.988 44.7334C120.167 45.0804 119.219 45.2539 118.145 45.2539C117.07 45.2539 116.118 45.0804 115.288 44.7334C114.459 44.3864 113.765 43.8997 113.206 43.2734C112.647 42.6387 112.224 41.8981 111.937 41.0518C111.649 40.1969 111.505 39.2702 111.505 38.2715ZM115.783 38.0049V38.2715C115.783 38.7878 115.821 39.2702 115.897 39.7188C115.974 40.1673 116.101 40.5609 116.278 40.8994C116.456 41.2295 116.697 41.4876 117.002 41.6738C117.307 41.86 117.688 41.9531 118.145 41.9531C118.593 41.9531 118.965 41.86 119.262 41.6738C119.566 41.4876 119.808 41.2295 119.985 40.8994C120.163 40.5609 120.29 40.1673 120.366 39.7188C120.442 39.2702 120.48 38.7878 120.48 38.2715V38.0049C120.48 37.5055 120.442 37.0358 120.366 36.5957C120.29 36.1471 120.163 35.7536 119.985 35.415C119.808 35.068 119.566 34.7972 119.262 34.6025C118.957 34.4079 118.576 34.3105 118.119 34.3105C117.671 34.3105 117.294 34.4079 116.989 34.6025C116.693 34.7972 116.456 35.068 116.278 35.415C116.101 35.7536 115.974 36.1471 115.897 36.5957C115.821 37.0358 115.783 37.5055 115.783 38.0049ZM131.979 34.666V45H127.701V31.2637H131.7L131.979 34.666ZM136.042 31.1621L135.966 35.1357C135.797 35.1188 135.568 35.0977 135.28 35.0723C134.993 35.0469 134.751 35.0342 134.557 35.0342C134.057 35.0342 133.626 35.0934 133.262 35.2119C132.906 35.3219 132.61 35.4912 132.373 35.7197C132.145 35.9398 131.975 36.2191 131.865 36.5576C131.764 36.8962 131.717 37.2897 131.726 37.7383L130.951 37.2305C130.951 36.3079 131.04 35.4701 131.218 34.7168C131.404 33.9551 131.666 33.2992 132.005 32.749C132.343 32.1904 132.754 31.763 133.236 31.4668C133.719 31.1621 134.26 31.0098 134.861 31.0098C135.073 31.0098 135.28 31.0225 135.483 31.0479C135.695 31.0732 135.881 31.1113 136.042 31.1621ZM144.913 45.2539C143.796 45.2539 142.797 45.0804 141.917 44.7334C141.037 44.3779 140.292 43.8913 139.683 43.2734C139.082 42.6556 138.62 41.9447 138.299 41.1406C137.986 40.3366 137.829 39.486 137.829 38.5889V38.1064C137.829 37.0993 137.969 36.1683 138.248 35.3135C138.527 34.4502 138.942 33.6969 139.492 33.0537C140.042 32.4105 140.732 31.9111 141.562 31.5557C142.391 31.1917 143.356 31.0098 144.456 31.0098C145.429 31.0098 146.301 31.1663 147.071 31.4795C147.841 31.7926 148.493 32.2412 149.026 32.8252C149.568 33.4092 149.979 34.1159 150.258 34.9453C150.546 35.7747 150.689 36.7057 150.689 37.7383V39.4775H139.467V36.7988H146.513V36.4688C146.521 36.0117 146.441 35.6224 146.271 35.3008C146.111 34.9792 145.874 34.7337 145.561 34.5645C145.247 34.3952 144.867 34.3105 144.418 34.3105C143.952 34.3105 143.567 34.4121 143.263 34.6152C142.966 34.8184 142.734 35.0977 142.564 35.4531C142.404 35.8001 142.289 36.2021 142.222 36.6592C142.154 37.1162 142.12 37.5986 142.12 38.1064V38.5889C142.12 39.0967 142.188 39.5579 142.323 39.9727C142.467 40.3874 142.67 40.7428 142.933 41.0391C143.203 41.3268 143.525 41.5511 143.897 41.7119C144.278 41.8727 144.71 41.9531 145.192 41.9531C145.776 41.9531 146.352 41.8431 146.919 41.623C147.486 41.403 147.973 41.0391 148.379 40.5312L150.321 42.8418C150.042 43.2396 149.644 43.6247 149.128 43.9971C148.62 44.3695 148.011 44.6742 147.3 44.9111C146.589 45.1396 145.793 45.2539 144.913 45.2539Z" fill="#1963AA"/>
<path d="M64.9121 15.0146H60.1641L60.1387 12.2471H64.0615C64.7555 12.2471 65.3184 12.1624 65.75 11.9932C66.1901 11.8239 66.5117 11.5785 66.7148 11.2568C66.918 10.9268 67.0195 10.5205 67.0195 10.0381C67.0195 9.48796 66.918 9.04362 66.7148 8.70508C66.5117 8.36654 66.1901 8.12109 65.75 7.96875C65.3184 7.80794 64.7598 7.72754 64.0742 7.72754H61.6621V23H57.5234V4.51562H64.0742C65.1829 4.51562 66.1732 4.61719 67.0449 4.82031C67.9167 5.02344 68.6572 5.33659 69.2666 5.75977C69.8844 6.18294 70.3542 6.71191 70.6758 7.34668C70.9974 7.98145 71.1582 8.73047 71.1582 9.59375C71.1582 10.347 70.9889 11.0495 70.6504 11.7012C70.3203 12.3529 69.7871 12.8818 69.0508 13.2881C68.3145 13.6943 67.3285 13.9144 66.0928 13.9482L64.9121 15.0146ZM64.7471 23H59.1104L60.6084 19.8008H64.7471C65.3818 19.8008 65.8981 19.6992 66.2959 19.4961C66.6937 19.293 66.9857 19.0179 67.1719 18.6709C67.3581 18.3239 67.4512 17.9346 67.4512 17.5029C67.4512 16.9951 67.3623 16.555 67.1846 16.1826C67.0153 15.8102 66.7445 15.5225 66.3721 15.3193C66.0081 15.1162 65.5215 15.0146 64.9121 15.0146H61.2051L61.2305 12.2471H65.7627L66.7275 13.3389C67.904 13.3135 68.8434 13.5039 69.5459 13.9102C70.2568 14.3079 70.7689 14.8327 71.082 15.4844C71.3952 16.1361 71.5518 16.8258 71.5518 17.5537C71.5518 18.7555 71.2936 19.7627 70.7773 20.5752C70.2611 21.3792 69.4951 21.9844 68.4795 22.3906C67.4723 22.7969 66.2282 23 64.7471 23ZM82.3018 19.7246V13.834C82.3018 13.4193 82.2383 13.0638 82.1113 12.7676C81.9844 12.4714 81.7855 12.2386 81.5146 12.0693C81.2438 11.9001 80.8926 11.8154 80.4609 11.8154C80.097 11.8154 79.7796 11.8789 79.5088 12.0059C79.2464 12.1328 79.0433 12.3148 78.8994 12.5518C78.764 12.7887 78.6963 13.0807 78.6963 13.4277H74.7354C74.7354 12.8099 74.875 12.2344 75.1543 11.7012C75.4336 11.168 75.8314 10.6982 76.3477 10.292C76.8724 9.88574 77.4987 9.57259 78.2266 9.35254C78.9544 9.12402 79.7712 9.00977 80.6768 9.00977C81.7516 9.00977 82.708 9.19173 83.5459 9.55566C84.3923 9.91113 85.0609 10.4486 85.5518 11.168C86.0426 11.8789 86.2881 12.776 86.2881 13.8594V19.6104C86.2881 20.4398 86.3346 21.0915 86.4277 21.5654C86.5293 22.0309 86.6732 22.4372 86.8594 22.7842V23H82.8604C82.6742 22.6022 82.5345 22.1113 82.4414 21.5273C82.3483 20.9349 82.3018 20.334 82.3018 19.7246ZM82.7969 14.6211L82.8223 16.8047H80.8545C80.4144 16.8047 80.0335 16.8597 79.7119 16.9697C79.3988 17.0798 79.1449 17.2321 78.9502 17.4268C78.7555 17.613 78.6117 17.833 78.5186 18.0869C78.4339 18.3324 78.3916 18.6032 78.3916 18.8994C78.3916 19.1787 78.4593 19.4326 78.5947 19.6611C78.7301 19.8812 78.9163 20.0547 79.1533 20.1816C79.3903 20.3086 79.6654 20.3721 79.9785 20.3721C80.4948 20.3721 80.9349 20.2705 81.2988 20.0674C81.6712 19.8643 81.959 19.6188 82.1621 19.3311C82.3652 19.0348 82.4668 18.7598 82.4668 18.5059L83.4189 20.1562C83.2666 20.4948 83.0804 20.846 82.8604 21.21C82.6403 21.5654 82.361 21.8997 82.0225 22.2129C81.6839 22.5176 81.2734 22.7673 80.791 22.9619C80.3171 23.1566 79.7458 23.2539 79.0771 23.2539C78.2139 23.2539 77.431 23.0804 76.7285 22.7334C76.026 22.3779 75.4632 21.8913 75.04 21.2734C74.6253 20.6556 74.418 19.9447 74.418 19.1406C74.418 18.4212 74.5492 17.7822 74.8115 17.2236C75.0739 16.665 75.4674 16.1911 75.9922 15.8018C76.5254 15.4124 77.194 15.1204 77.998 14.9258C78.8021 14.7227 79.7415 14.6211 80.8164 14.6211H82.7969ZM93.877 3.4873V23H89.9033V3.4873H93.877ZM102.599 9.26367L96.6191 16.1699L93.458 19.3438L91.8711 16.665L94.4355 13.3516L97.8252 9.26367H102.599ZM98.4092 23L94.5371 16.6904L97.3809 14.4688L102.954 23H98.4092Z" fill="#1963AA"/>
<path d="M112.841 8.03223L108.067 23H103.649L110.492 4.51562H113.285L112.841 8.03223ZM116.802 23L112.016 8.03223L111.521 4.51562H114.352L121.22 23H116.802ZM116.599 16.1191V19.3184H106.963V16.1191H116.599ZM127.729 9.26367V23H123.756V9.26367H127.729ZM123.515 5.70898C123.515 5.13346 123.718 4.66374 124.124 4.2998C124.53 3.92741 125.063 3.74121 125.724 3.74121C126.384 3.74121 126.917 3.92741 127.323 4.2998C127.738 4.66374 127.945 5.13346 127.945 5.70898C127.945 6.27604 127.738 6.74577 127.323 7.11816C126.917 7.4821 126.384 7.66406 125.724 7.66406C125.063 7.66406 124.53 7.4821 124.124 7.11816C123.718 6.74577 123.515 6.27604 123.515 5.70898Z" fill="#C72944"/>
</svg>
