<svg width="40" height="40" viewBox="0 0 40 40" fill="none" xmlns="http://www.w3.org/2000/svg">
<rect width="40" height="40" rx="5.99982" fill="white"/>
<rect width="40" height="40" rx="5.99982" fill="#C62946"/>
<rect width="40" height="40" rx="5.99982" fill="#1963AA"/>
<rect width="22" height="40" rx="5.99982" fill="#C62946"/>
<path d="M10.9672 18.496V23.4978C10.9672 26.3272 10.9672 27.7419 11.8459 28.6209C12.7246 29.5 14.1388 29.5 16.9672 29.5H22.9672C25.7956 29.5 27.2098 29.5 28.0885 28.6209C28.9672 27.7419 28.9672 26.3272 28.9672 23.4978V18.496" stroke="white" stroke-width="1.99994" stroke-linecap="round"/>
<path d="M22.9669 24.9932C22.2828 25.6004 21.1937 25.9932 19.9669 25.9932C18.7401 25.9932 17.6509 25.6004 16.9669 24.9932" stroke="white" stroke-width="1.99994" stroke-linecap="round"/>
<path d="M18.104 16.4184C17.822 17.4368 16.7965 19.1935 14.848 19.4481C13.1275 19.6729 11.8226 18.9219 11.4893 18.6079C11.1219 18.3533 10.2843 17.5386 10.0792 17.0294C9.87413 16.5202 10.1134 15.417 10.2843 14.9672L10.9676 12.9888C11.1344 12.4919 11.5249 11.3166 11.9252 10.919C12.3255 10.5215 13.136 10.5042 13.4696 10.5042H20.4751C22.2783 10.5297 26.2211 10.4881 27.0005 10.5042C27.7799 10.5203 28.2483 11.1736 28.385 11.4537C29.5479 14.2705 30.0002 15.8837 30.0002 16.5711C29.8484 17.3045 29.2202 18.6872 27.0005 19.2954C24.6935 19.9274 23.3856 18.698 22.9753 18.226M17.1554 18.226C17.4802 18.6249 18.4989 19.4278 19.9756 19.4481C21.4524 19.4685 22.7275 18.4382 23.1804 17.9205C23.3086 17.7678 23.5855 17.3146 23.8727 16.4184" stroke="white" stroke-width="1.99994" stroke-linecap="round" stroke-linejoin="round"/>
</svg>
