<svg width="48" height="48" viewBox="0 0 48 48" fill="none" xmlns="http://www.w3.org/2000/svg">
<path d="M0 24C0 10.7452 10.7452 0 24 0C37.2548 0 48 10.7452 48 24C48 37.2548 37.2548 48 24 48C10.7452 48 0 37.2548 0 24Z" fill="white"/>
<mask id="mask0_2433_10043" style="mask-type:luminance" maskUnits="userSpaceOnUse" x="0" y="0" width="48" height="48">
<path fill-rule="evenodd" clip-rule="evenodd" d="M0 24C0 10.7452 10.7452 0 24 0C37.2548 0 48 10.7452 48 24C48 37.2548 37.2548 48 24 48C10.7452 48 0 37.2548 0 24Z" fill="white"/>
</mask>
<g mask="url(#mask0_2433_10043)">
<path d="M23.999 11.2002C27.4746 11.2002 27.9096 11.2152 29.2744 11.2773C30.6369 11.3397 31.5679 11.5556 32.3838 11.8721C33.2265 12.1987 33.9384 12.6366 34.6504 13.3486C35.3623 14.06 35.7999 14.7736 36.1279 15.6152C36.4426 16.4291 36.6587 17.36 36.7227 18.7227C36.784 20.0878 36.7998 20.5242 36.7998 24C36.7998 27.4763 36.784 27.912 36.7227 29.2773C36.6586 30.6394 36.4426 31.5697 36.1279 32.3838C35.7999 33.2254 35.3624 33.9399 34.6504 34.6514C33.9393 35.3632 33.2262 35.802 32.3848 36.1289C31.5704 36.4454 30.6389 36.6603 29.2764 36.7227C27.9113 36.7848 27.4762 36.8008 24 36.8008C20.5242 36.8008 20.0878 36.7848 18.7227 36.7227C17.3604 36.6603 16.4296 36.4454 15.6152 36.1289C14.774 35.802 14.0598 35.3633 13.3486 34.6514C12.6369 33.9399 12.1993 33.2256 11.8721 32.3838C11.5558 31.57 11.34 30.6398 11.2773 29.2773C11.2155 27.912 11.2002 27.4763 11.2002 24C11.2002 20.524 11.2163 20.087 11.2773 18.7217C11.3387 17.3598 11.5548 16.4293 11.8721 15.6152C12.2001 14.7737 12.6377 14.06 13.3496 13.3486C14.0611 12.6369 14.7753 12.199 15.6172 11.8721C16.431 11.5556 17.3612 11.3397 18.7236 11.2773C20.0885 11.2152 20.525 11.2002 23.999 11.2002ZM22.8535 13.5039C20.4679 13.5066 20.0099 13.5228 18.8291 13.5762C17.5811 13.6335 16.9034 13.8406 16.4521 14.0166C15.8549 14.2491 15.4284 14.5268 14.9805 14.9746C14.5325 15.4226 14.2545 15.8499 14.0225 16.4473C13.8473 16.8984 13.6391 17.5756 13.582 18.8232C13.5207 20.1726 13.5078 20.576 13.5078 23.9941C13.5078 27.4123 13.5207 27.8177 13.582 29.167C13.6388 30.415 13.8473 31.0923 14.0225 31.543C14.255 32.1406 14.5325 32.5666 14.9805 33.0146C15.4283 33.4625 15.855 33.7397 16.4521 33.9717C16.9036 34.1469 17.5811 34.3555 18.8291 34.4131C20.1784 34.4744 20.5835 34.4873 24.001 34.4873C27.4186 34.4873 27.8245 34.4744 29.1738 34.4131C30.4215 34.356 31.0991 34.1476 31.5498 33.9717C32.1474 33.7397 32.5735 33.4627 33.0215 33.0146C33.4694 32.5669 33.7475 32.1412 33.9795 31.5439C34.1547 31.0933 34.3629 30.4157 34.4199 29.168C34.4813 27.8187 34.4941 27.413 34.4941 23.9971C34.4941 20.5817 34.4812 20.1761 34.4199 18.8271C34.3631 17.5791 34.1547 16.9009 33.9795 16.4502C33.747 15.853 33.4694 15.4264 33.0215 14.9785C32.5737 14.5305 32.1471 14.2535 31.5498 14.0215C31.0986 13.8463 30.4215 13.6371 29.1738 13.5801C27.8242 13.5187 27.4186 13.5068 24.001 13.5068C23.5741 13.5068 23.1941 13.5063 22.8535 13.5068V13.5039ZM24.001 17.4268C27.631 17.4268 30.574 20.37 30.5742 24C30.5742 27.6302 27.6311 30.5723 24.001 30.5723C20.371 30.572 17.4277 27.63 17.4277 24C17.4279 20.4834 20.1902 17.6116 23.6631 17.4355L24.001 17.4268ZM24.001 19.7334C21.6447 19.7336 19.7346 21.6437 19.7344 24C19.7344 26.3562 21.6446 28.2664 24.001 28.2666C26.3573 28.2666 28.2686 26.3563 28.2686 24C28.2684 21.6436 26.3572 19.7334 24.001 19.7334ZM30.834 15.6318C31.682 15.6318 32.3701 16.32 32.3701 17.168C32.37 18.0159 31.6819 18.7041 30.834 18.7041C29.9861 18.7041 29.298 18.0159 29.2979 17.168C29.2979 16.3728 29.9026 15.7194 30.6768 15.6406L30.834 15.6318Z" fill="#1963AA"/>
</g>
</svg>
