<svg width="48" height="48" viewBox="0 0 48 48" fill="none" xmlns="http://www.w3.org/2000/svg">
<path d="M24 48C37.2548 48 48 37.2548 48 24C48 10.7452 37.2548 0 24 0C10.7452 0 0 10.7452 0 24C0 37.2548 10.7452 48 24 48Z" fill="white"/>
<path d="M24.791 8.7998C28.6087 8.80145 32.1923 10.2878 34.8867 12.9854C37.581 15.6827 39.0639 19.268 39.0625 23.0811C39.0593 30.9478 32.6594 37.3493 24.791 37.3525H24.7852C22.3969 37.3516 20.0501 36.7521 17.9658 35.6152L10.4004 37.5996L12.4248 30.2051C11.176 28.0408 10.5195 25.5855 10.5205 23.0703C10.5236 15.2019 16.925 8.79997 24.791 8.7998ZM24.7959 11.21C18.2532 11.2101 12.9323 16.5314 12.9297 23.0713C12.9288 25.3124 13.5559 27.4954 14.7432 29.3838L15.0254 29.832L13.8271 34.209L18.3164 33.0312L18.749 33.2891C20.5702 34.3698 22.6586 34.9416 24.7871 34.9424H24.791C31.3288 34.9424 36.6507 29.6205 36.6533 23.0801C36.6545 19.9108 35.421 16.9305 33.1816 14.6885C30.9422 12.4466 27.964 11.2111 24.7959 11.21ZM19.7393 16.4795C19.9767 16.4795 20.2143 16.4818 20.4219 16.4922C20.6407 16.5032 20.9351 16.4092 21.2246 17.1045C21.5218 17.8186 22.2351 19.5735 22.3242 19.752C22.4134 19.9304 22.4724 20.1389 22.3535 20.377C22.2347 20.6146 22.1753 20.7636 21.9971 20.9717C21.8188 21.1798 21.6223 21.4369 21.4619 21.5967C21.2835 21.7744 21.0978 21.9674 21.3057 22.3242C21.5137 22.6812 22.23 23.8484 23.29 24.7939C24.6521 26.0088 25.8006 26.386 26.1572 26.5645C26.5136 26.743 26.7217 26.7125 26.9297 26.4746C27.1378 26.2365 27.8207 25.4342 28.0586 25.0771C28.2963 24.7203 28.5345 24.7795 28.8613 24.8984C29.1889 25.0179 30.9413 25.8802 31.2979 26.0586C31.6543 26.2371 31.8923 26.326 31.9814 26.4746C32.0706 26.6233 32.0704 27.3378 31.7734 28.1709C31.476 29.0038 30.0513 29.7639 29.3662 29.8662C28.7519 29.9581 27.9743 29.9961 27.1201 29.7246C26.6023 29.5603 25.9384 29.3409 25.0879 28.9736C21.5108 27.429 19.1744 23.827 18.9961 23.5889C18.8171 23.35 17.54 21.655 17.54 19.9004C17.5401 18.1454 18.4613 17.2828 18.7881 16.9258C19.1149 16.5689 19.5016 16.4795 19.7393 16.4795Z" fill="#1963AA"/>
</svg>
