<svg width="24" height="24" viewBox="0 0 24 24" fill="none" xmlns="http://www.w3.org/2000/svg">
    <path d="M2 11.25C1.58579 11.25 1.25 11.5858 1.25 12C1.25 12.4142 1.58579 12.75 2 12.75V11.25ZM21.5303 12.5303C21.8232 12.2374 21.8232 11.7626 21.5303 11.4697L16.7574 6.6967C16.4645 6.40381 15.9896 6.40381 15.6967 6.6967C15.4038 6.98959 15.4038 7.46447 15.6967 7.75736L19.9393 12L15.6967 16.2426C15.4038 16.5355 15.4038 17.0104 15.6967 17.3033C15.9896 17.5962 16.4645 17.5962 16.7574 17.3033L21.5303 12.5303ZM2 12V12.75H21V12V11.25H2V12Z"
          fill="#868696"/>
</svg>
