<svg width="16" height="16" viewBox="0 0 16 16" fill="none" xmlns="http://www.w3.org/2000/svg">
<path d="M12.2759 11.7242C12.7969 12.2452 12.7969 13.0893 12.2759 13.6094C11.755 14.1304 10.9108 14.1304 10.3907 13.6094C9.86976 13.0885 9.86976 12.2443 10.3907 11.7242C10.9117 11.2033 11.7558 11.2033 12.2759 11.7242" stroke="#1963AA" stroke-width="1.5" stroke-linecap="round" stroke-linejoin="round"/>
<path fill-rule="evenodd" clip-rule="evenodd" d="M6.00073 11.7239C6.52176 12.245 6.52176 13.0892 6.00073 13.6094C5.47971 14.1304 4.63547 14.1304 4.11529 13.6094C3.5951 13.0884 3.59426 12.2441 4.11529 11.7239C4.63631 11.2038 5.47971 11.2029 6.00073 11.7239Z" stroke="#1963AA" stroke-width="1.5" stroke-linecap="round" stroke-linejoin="round"/>
<path fill-rule="evenodd" clip-rule="evenodd" d="M6.66732 3.33352H9.33398C9.70198 3.33352 10.0007 3.63218 10.0007 4.00018V9.00016H2.33398" stroke="#1963AA" stroke-width="1.5" stroke-linecap="round" stroke-linejoin="round"/>
<path d="M3.33398 12.6667H3.00065C2.63265 12.6667 2.33398 12.3874 2.33398 12.0433V8.66675" stroke="#1963AA" stroke-width="1.5" stroke-linecap="round" stroke-linejoin="round"/>
<path d="M10 5.50024H12.882C13.1547 5.50024 13.4 5.66176 13.5007 5.90826L14.5713 8.512C14.634 8.66509 14.6667 8.82855 14.6667 8.99331V12.0182C14.6667 12.3763 14.368 12.6669 14 12.6669H12.7793" stroke="#1963AA" stroke-width="1.5" stroke-linecap="round" stroke-linejoin="round"/>
<path d="M10 12.667H6.5" stroke="#1963AA" stroke-width="1.5" stroke-linecap="round" stroke-linejoin="round"/>
</svg>
