<svg width="22" height="26" viewBox="0 0 22 26" fill="none" xmlns="http://www.w3.org/2000/svg">
    <mask id="path-1-inside-1_2839_36095" fill="white">
        <path fill-rule="evenodd" clip-rule="evenodd" d="M0.375 10.9647C0.375 18.5227 9.30147 25.75 10.9993 25.75C12.6971 25.75 21.625 18.5227 21.625 10.9647C21.625 5.04773 16.8677 0.25 10.9993 0.25C5.13089 0.25 0.375 5.04773 0.375 10.9647ZM11.0008 6C13.2092 6 15 7.79078 15 10.0008C15 12.2092 13.2092 14 11.0008 14C8.79078 14 7 12.2092 7 10.0008C7 7.79078 8.79078 6 11.0008 6Z"/>
    </mask>
    <path fill-rule="evenodd" clip-rule="evenodd" d="M0.375 10.9647C0.375 18.5227 9.30147 25.75 10.9993 25.75C12.6971 25.75 21.625 18.5227 21.625 10.9647C21.625 5.04773 16.8677 0.25 10.9993 0.25C5.13089 0.25 0.375 5.04773 0.375 10.9647ZM11.0008 6C13.2092 6 15 7.79078 15 10.0008C15 12.2092 13.2092 14 11.0008 14C8.79078 14 7 12.2092 7 10.0008C7 7.79078 8.79078 6 11.0008 6Z" fill="#1056B2"/>
    <path d="M10.9993 23.75C11.3141 23.75 11.3669 23.8534 10.9813 23.652C10.6929 23.5013 10.2945 23.2514 9.81238 22.8947C8.85248 22.1847 7.67935 21.1397 6.54582 19.8635C4.21924 17.2439 2.375 14.0123 2.375 10.9647H-1.625C-1.625 15.475 0.993993 19.6361 3.5551 22.5197C4.86542 23.995 6.24226 25.2293 7.43359 26.1105C8.02704 26.5495 8.60459 26.9233 9.12931 27.1974C9.55691 27.4208 10.26 27.75 10.9993 27.75V23.75ZM19.625 10.9647C19.625 14.0122 17.7805 17.2438 15.4536 19.8634C14.3199 21.1396 13.1466 22.1846 12.1865 22.8947C11.7043 23.2513 11.3059 23.5013 11.0174 23.6519C10.6318 23.8534 10.6845 23.75 10.9993 23.75V27.75C11.7386 27.75 12.4417 27.4208 12.8693 27.1974C13.394 26.9233 13.9716 26.5496 14.5652 26.1106C15.7566 25.2294 17.1336 23.9951 18.4441 22.5198C21.0056 19.6362 23.625 15.4751 23.625 10.9647H19.625ZM10.9993 2.25C15.7474 2.25 19.625 6.13647 19.625 10.9647H23.625C23.625 3.959 17.9881 -1.75 10.9993 -1.75V2.25ZM2.375 10.9647C2.375 6.13613 6.25157 2.25 10.9993 2.25V-1.75C4.01022 -1.75 -1.625 3.95934 -1.625 10.9647H2.375ZM17 10.0008C17 6.68674 14.3143 4 11.0008 4V8C12.1041 8 13 8.89482 13 10.0008H17ZM11.0008 16C14.3138 16 17 13.3138 17 10.0008H13C13 11.1047 12.1047 12 11.0008 12V16ZM5 10.0008C5 13.3143 7.68674 16 11.0008 16V12C9.89482 12 9 11.1041 9 10.0008H5ZM11.0008 4C7.68621 4 5 6.68621 5 10.0008H9C9 8.89535 9.89535 8 11.0008 8V4Z" fill="#1056B2" mask="url(#path-1-inside-1_2839_36095)"/>
</svg>