<svg width="16" height="16" viewBox="0 0 16 16" fill="none" xmlns="http://www.w3.org/2000/svg">
<path fill-rule="evenodd" clip-rule="evenodd" d="M3.99693 14.0025H2.66304C2.29469 14.0025 1.99609 13.7039 1.99609 13.3356V9.33394C1.99609 8.96559 2.29469 8.66699 2.66304 8.66699H3.99693C4.36527 8.66699 4.66387 8.96559 4.66387 9.33394V13.3356C4.66387 13.7039 4.36527 14.0025 3.99693 14.0025Z" stroke="#1963AA" stroke-width="1.5" stroke-linecap="round" stroke-linejoin="round"/>
<path d="M8.99949 2.66406V5.73201" stroke="#1963AA" stroke-width="1.5" stroke-linecap="round" stroke-linejoin="round"/>
<path d="M13.3343 9.33392V6.69282C13.3325 6.16213 12.902 5.73279 12.3713 5.73242H5.62713C5.09643 5.73279 4.6659 6.16213 4.66406 6.69282V10.0676" stroke="#1963AA" stroke-width="1.5" stroke-linecap="round" stroke-linejoin="round"/>
<path d="M4.66406 9.33351V5.31251C4.6642 5.05234 4.71683 4.79488 4.81879 4.55553L5.34635 3.32168C5.5168 2.92269 5.90889 2.66392 6.34276 2.66407H11.655C12.0902 2.66267 12.4841 2.92159 12.6554 3.32168L13.1829 4.55686C13.2839 4.7964 13.3354 5.05389 13.3344 5.31384V9.65699" stroke="#1963AA" stroke-width="1.5" stroke-linecap="round" stroke-linejoin="round"/>
<path d="M8.66573 11.3344H10.2217C10.5103 11.3344 10.7912 11.2408 11.022 11.0677L12.6334 9.85917C13.0357 9.55762 13.5984 9.5977 13.9539 9.95321V9.95321C14.1435 10.1426 14.25 10.3996 14.25 10.6675C14.25 10.9355 14.1435 11.1924 13.9539 11.3818L12.5714 12.7644C12.1989 13.1368 11.7246 13.3907 11.2081 13.494L9.25397 13.8848C8.86655 13.9623 8.46676 13.9527 8.08349 13.8568L6.31608 13.4153C6.10479 13.3621 5.88772 13.3352 5.66981 13.3353H4.66406" stroke="#1963AA" stroke-width="1.5" stroke-linecap="round" stroke-linejoin="round"/>
<path d="M8.66573 11.3348H9.65614C10.2142 11.3348 10.6666 10.8824 10.6666 10.3243V10.1243C10.6666 9.66083 10.3512 9.25686 9.90158 9.14452L8.37294 8.76237C8.12457 8.69969 7.86945 8.66766 7.61329 8.66699V8.66699C6.99488 8.6668 6.39028 8.84992 5.8759 9.19321L4.66406 10.0009" stroke="#1963AA" stroke-width="1.5" stroke-linecap="round" stroke-linejoin="round"/>
</svg>
