<svg width="20" height="20" viewBox="0 0 20 20" fill="none" xmlns="http://www.w3.org/2000/svg">
<path d="M1.9458 7.61398C1.68476 7.37257 1.82656 6.93616 2.17964 6.8943L7.18262 6.30089C7.32652 6.28383 7.45151 6.19346 7.51221 6.06187L9.6224 1.48705C9.77132 1.16419 10.2303 1.16413 10.3792 1.48699L12.4894 6.06178C12.5501 6.19336 12.6743 6.28397 12.8182 6.30104L17.8215 6.8943C18.1745 6.93616 18.3159 7.3727 18.0549 7.61411L14.3565 11.0349C14.2501 11.1333 14.2027 11.2798 14.231 11.4219L15.2125 16.3633C15.2818 16.712 14.9107 16.9822 14.6004 16.8086L10.2043 14.3472C10.0778 14.2764 9.92422 14.2767 9.79777 14.3475L5.4012 16.8079C5.09094 16.9816 4.71912 16.712 4.78841 16.3633L5.77012 11.4222C5.79836 11.2801 5.75111 11.1333 5.64472 11.0349L1.9458 7.61398Z" fill="#FFA44C"/>
</svg>
