<svg width="28" height="20" viewBox="0 0 28 20" fill="none" xmlns="http://www.w3.org/2000/svg">
<rect width="28" height="20" rx="2" fill="white"/>
<mask id="mask0_2517_15323" style="mask-type:luminance" maskUnits="userSpaceOnUse" x="0" y="0" width="28" height="20">
<rect width="28" height="20" rx="2" fill="white"/>
</mask>
<g mask="url(#mask0_2517_15323)">
<rect width="28" height="20" fill="#F22A46"/>
<path fill-rule="evenodd" clip-rule="evenodd" d="M13.9993 13.3332C15.8403 13.3332 17.3327 11.8408 17.3327 9.99984C17.3327 8.15889 15.8403 6.6665 13.9993 6.6665C12.1584 6.6665 10.666 8.15889 10.666 9.99984C10.666 11.8408 12.1584 13.3332 13.9993 13.3332Z" fill="#FFF04D"/>
<path d="M16.0449 5.75293L18.5713 4.2666L17.6846 7.06152L20.6064 6.81836L18.5947 8.95117L21.333 10L18.5947 11.0488L20.6064 13.1816L17.6846 12.9385L18.5713 15.7334L16.0449 14.2471L15.6309 17.1494L13.999 14.7139L12.3672 17.1494L11.9541 14.2471L9.42676 15.7334L10.3145 12.9385L7.39258 13.1816L9.4043 11.0488L6.66602 10L9.4043 8.95117L7.39258 6.81836L10.3145 7.06152L9.42676 4.2666L11.9541 5.75293L12.3672 2.85059L13.999 5.28613L15.6309 2.85059L16.0449 5.75293ZM13.999 5.33301C11.4219 5.33318 9.33304 7.42281 9.33301 10C9.33301 12.5772 11.4218 14.6668 13.999 14.667C16.5764 14.667 18.666 12.5773 18.666 10C18.666 7.4227 16.5763 5.33301 13.999 5.33301Z" fill="#FFF04D"/>
</g>
</svg>
