<svg width="28" height="20" viewBox="0 0 28 20" fill="none" xmlns="http://www.w3.org/2000/svg">
<rect width="28" height="20" rx="2" fill="white"/>
<mask id="mask0_2517_15436" style="mask-type:luminance" maskUnits="userSpaceOnUse" x="0" y="0" width="28" height="20">
<rect width="28" height="20" rx="2" fill="white"/>
</mask>
<g mask="url(#mask0_2517_15436)">
<path d="M28 20H0V18.667H28V20ZM28 17.333H0V16H28V17.333ZM28 14.667H0V13.333H28V14.667ZM28 12H0V10.667H28V12ZM28 9.33301H0V8H28V9.33301ZM28 6.66699H0V5.33301H28V6.66699ZM28 4H0V2.66699H28V4ZM28 1.33301H0V0H28V1.33301Z" fill="#D02F44"/>
<rect width="12" height="9.33333" fill="#46467F"/>
<g filter="url(#filter0_d_2517_15436)">
<path d="M2.00098 6.6665C2.36902 6.66668 2.66699 6.96542 2.66699 7.3335C2.66699 7.70158 2.36902 8.00031 2.00098 8.00049C1.63279 8.00049 1.33398 7.70169 1.33398 7.3335C1.33398 6.96531 1.63279 6.6665 2.00098 6.6665ZM4.66699 6.6665C5.03518 6.6665 5.33398 6.96531 5.33398 7.3335C5.33398 7.70169 5.03518 8.00049 4.66699 8.00049C4.29895 8.00031 4.00098 7.70158 4.00098 7.3335C4.00098 6.96542 4.29895 6.66668 4.66699 6.6665ZM7.33398 6.6665C7.70217 6.6665 8.00098 6.96531 8.00098 7.3335C8.00098 7.70169 7.70217 8.00049 7.33398 8.00049C6.96579 8.00049 6.66699 7.70169 6.66699 7.3335C6.66699 6.96531 6.96579 6.6665 7.33398 6.6665ZM10.001 6.6665C10.369 6.66668 10.667 6.96542 10.667 7.3335C10.667 7.70158 10.369 8.00031 10.001 8.00049C9.63279 8.00049 9.33398 7.70169 9.33398 7.3335C9.33398 6.96531 9.63279 6.6665 10.001 6.6665ZM3.33398 5.3335C3.70217 5.3335 4.00098 5.6323 4.00098 6.00049C4.0008 6.36853 3.70207 6.6665 3.33398 6.6665C2.9659 6.6665 2.66717 6.36853 2.66699 6.00049C2.66699 5.6323 2.96579 5.3335 3.33398 5.3335ZM6.00098 5.3335C6.36902 5.33367 6.66699 5.63241 6.66699 6.00049C6.66682 6.36842 6.36891 6.66633 6.00098 6.6665C5.63289 6.6665 5.33416 6.36853 5.33398 6.00049C5.33398 5.6323 5.63279 5.3335 6.00098 5.3335ZM8.66699 5.3335C9.03518 5.3335 9.33398 5.6323 9.33398 6.00049C9.33381 6.36853 9.03507 6.6665 8.66699 6.6665C8.29906 6.66633 8.00115 6.36842 8.00098 6.00049C8.00098 5.63241 8.29895 5.33367 8.66699 5.3335ZM2.00098 4.00049C2.36891 4.00066 2.66682 4.29857 2.66699 4.6665C2.66699 5.03459 2.36902 5.33332 2.00098 5.3335C1.63279 5.3335 1.33398 5.03469 1.33398 4.6665C1.33416 4.29846 1.6329 4.00049 2.00098 4.00049ZM4.66699 4.00049C5.03507 4.00049 5.33381 4.29846 5.33398 4.6665C5.33398 5.03469 5.03518 5.3335 4.66699 5.3335C4.29895 5.33332 4.00098 5.03459 4.00098 4.6665C4.00115 4.29857 4.29906 4.00066 4.66699 4.00049ZM7.33398 4.00049C7.70207 4.00049 8.0008 4.29846 8.00098 4.6665C8.00098 5.03469 7.70217 5.3335 7.33398 5.3335C6.96579 5.3335 6.66699 5.03469 6.66699 4.6665C6.66717 4.29846 6.9659 4.00049 7.33398 4.00049ZM10.001 4.00049C10.3689 4.00066 10.6668 4.29857 10.667 4.6665C10.667 5.03459 10.369 5.33332 10.001 5.3335C9.63279 5.3335 9.33398 5.03469 9.33398 4.6665C9.33416 4.29846 9.6329 4.00049 10.001 4.00049ZM3.33398 2.6665C3.70217 2.6665 4.00098 2.96531 4.00098 3.3335C4.00098 3.70169 3.70217 4.00049 3.33398 4.00049C2.96579 4.00049 2.66699 3.70169 2.66699 3.3335C2.66699 2.96531 2.96579 2.6665 3.33398 2.6665ZM6.00098 2.6665C6.36902 2.66668 6.66699 2.96541 6.66699 3.3335C6.66699 3.70158 6.36902 4.00031 6.00098 4.00049C5.63279 4.00049 5.33398 3.70169 5.33398 3.3335C5.33398 2.96531 5.63279 2.6665 6.00098 2.6665ZM8.66699 2.6665C9.03518 2.6665 9.33398 2.96531 9.33398 3.3335C9.33398 3.70169 9.03518 4.00049 8.66699 4.00049C8.29895 4.00031 8.00098 3.70158 8.00098 3.3335C8.00098 2.96541 8.29895 2.66668 8.66699 2.6665ZM2.00098 1.3335C2.36902 1.33367 2.66699 1.63241 2.66699 2.00049C2.66682 2.36842 2.36891 2.66633 2.00098 2.6665C1.6329 2.6665 1.33416 2.36853 1.33398 2.00049C1.33398 1.6323 1.63279 1.3335 2.00098 1.3335ZM4.66699 1.3335C5.03518 1.3335 5.33398 1.6323 5.33398 2.00049C5.33381 2.36853 5.03507 2.6665 4.66699 2.6665C4.29906 2.66633 4.00115 2.36842 4.00098 2.00049C4.00098 1.63241 4.29895 1.33367 4.66699 1.3335ZM7.33398 1.3335C7.70217 1.3335 8.00098 1.6323 8.00098 2.00049C8.0008 2.36853 7.70207 2.6665 7.33398 2.6665C6.9659 2.6665 6.66717 2.36853 6.66699 2.00049C6.66699 1.6323 6.96579 1.3335 7.33398 1.3335ZM10.001 1.3335C10.369 1.33367 10.667 1.63241 10.667 2.00049C10.6668 2.36842 10.3689 2.66633 10.001 2.6665C9.6329 2.6665 9.33416 2.36853 9.33398 2.00049C9.33398 1.6323 9.63279 1.3335 10.001 1.3335Z" fill="url(#paint0_linear_2517_15436)"/>
</g>
</g>
<defs>
<filter id="filter0_d_2517_15436" x="1.33398" y="1.3335" width="9.33398" height="7.66699" filterUnits="userSpaceOnUse" color-interpolation-filters="sRGB">
<feFlood flood-opacity="0" result="BackgroundImageFix"/>
<feColorMatrix in="SourceAlpha" type="matrix" values="0 0 0 0 0 0 0 0 0 0 0 0 0 0 0 0 0 0 127 0" result="hardAlpha"/>
<feOffset dy="1"/>
<feColorMatrix type="matrix" values="0 0 0 0 0 0 0 0 0 0 0 0 0 0 0 0 0 0 0.06 0"/>
<feBlend mode="normal" in2="BackgroundImageFix" result="effect1_dropShadow_2517_15436"/>
<feBlend mode="normal" in="SourceGraphic" in2="effect1_dropShadow_2517_15436" result="shape"/>
</filter>
<linearGradient id="paint0_linear_2517_15436" x1="1.33398" y1="1.3335" x2="1.33398" y2="8.00049" gradientUnits="userSpaceOnUse">
<stop stop-color="white"/>
<stop offset="1" stop-color="#F0F0F0"/>
</linearGradient>
</defs>
</svg>
