<svg width="512" height="512" viewBox="0 0 512 512" fill="none" xmlns="http://www.w3.org/2000/svg">
<rect width="512.005" height="512.005" rx="76.8011" fill="white"/>
<rect width="512.005" height="512.005" rx="76.8011" fill="#C62946"/>
<rect width="512.005" height="512.005" rx="76.8011" fill="#1963AA"/>
<rect width="281.603" height="512.005" rx="76.8011" fill="#C62946"/>
<path d="M140.376 236.752V300.776C140.376 336.993 140.376 355.101 151.624 366.352C162.871 377.605 180.973 377.605 217.177 377.605H293.978C330.182 377.605 348.284 377.605 359.531 366.352C370.779 355.101 370.779 336.993 370.779 300.776V236.752" stroke="white" stroke-width="25.6004" stroke-linecap="round"/>
<path d="M293.973 319.916C285.217 327.688 271.277 332.716 255.574 332.716C239.871 332.716 225.93 327.688 217.174 319.916" stroke="white" stroke-width="25.6004" stroke-linecap="round"/>
<path d="M231.731 210.158C228.121 223.194 214.994 245.68 190.053 248.939C168.031 251.817 151.329 242.204 147.062 238.185C142.359 234.926 131.638 224.498 129.013 217.98C126.387 211.462 129.45 197.34 131.638 191.583L140.384 166.259C142.519 159.899 147.517 144.855 152.641 139.766C157.765 134.678 168.14 134.456 172.41 134.456H262.081C285.162 134.782 335.63 134.25 345.607 134.456C355.583 134.662 361.579 143.025 363.329 146.61C378.214 182.665 384.003 203.315 384.003 212.114C382.06 221.5 374.019 239.2 345.607 246.985C316.077 255.074 299.336 239.338 294.084 233.296M219.589 233.296C223.745 238.402 236.785 248.679 255.687 248.939C274.59 249.2 290.912 236.012 296.709 229.386C298.35 227.431 301.894 221.63 305.571 210.158" stroke="white" stroke-width="25.6004" stroke-linecap="round" stroke-linejoin="round"/>
</svg>
